if (_typeface_js && _typeface_js.loadFace) _typeface_js.loadFace({"glyphs":{"S":{"x_min":62.703125,"x_max":701.25,"ha":763,"o":"m 398 937 l 526 923 l 663 865 l 663 675 l 523 745 l 408 763 l 286 679 l 327 608 l 424 566 l 550 514 l 656 425 l 701 277 l 674 153 l 599 62 l 490 7 l 358 -11 l 216 8 l 62 79 l 62 177 l 62 276 l 160 215 l 260 175 l 354 162 l 451 188 l 492 264 l 436 350 l 328 395 l 198 452 l 110 538 l 78 667 l 103 787 l 170 871 l 272 921 l 398 937 "},"a":{"x_min":39.546875,"x_max":691.609375,"ha":778,"o":"m 691 662 l 691 530 l 691 397 l 691 265 l 691 132 l 691 0 l 517 0 l 517 31 l 366 -11 l 235 14 l 132 84 l 63 193 l 39 331 l 62 468 l 128 577 l 228 648 l 358 674 l 517 628 l 517 662 l 691 662 m 389 147 l 517 194 l 517 330 l 517 467 l 389 515 l 264 462 l 214 331 l 264 200 l 389 147 "},"T":{"x_min":25.078125,"x_max":785.171875,"ha":810,"o":"m 785 752 l 647 752 l 509 752 l 509 626 l 509 501 l 509 376 l 509 250 l 509 125 l 509 0 l 405 0 l 300 0 l 300 125 l 300 250 l 300 376 l 300 501 l 300 626 l 300 752 l 163 752 l 25 752 l 25 926 l 151 926 l 278 926 l 405 926 l 531 926 l 658 926 l 785 926 l 785 752 "},"N":{"x_min":86.8125,"x_max":980.984375,"ha":1068,"o":"m 980 0 l 870 0 l 759 0 l 680 103 l 601 206 l 522 308 l 443 411 l 365 515 l 286 618 l 286 494 l 286 371 l 286 246 l 286 123 l 286 0 l 186 0 l 86 0 l 86 132 l 86 264 l 86 396 l 86 529 l 86 661 l 86 793 l 86 926 l 197 926 l 309 926 l 387 822 l 466 719 l 544 616 l 624 514 l 702 410 l 781 307 l 781 431 l 781 554 l 781 679 l 781 802 l 781 926 l 880 926 l 980 926 l 980 793 l 980 661 l 980 529 l 980 396 l 980 264 l 980 132 l 980 0 "},"K":{"x_min":90.671875,"x_max":929.859375,"ha":947,"o":"m 299 0 l 194 0 l 90 0 l 90 132 l 90 264 l 90 396 l 90 529 l 90 661 l 90 793 l 90 926 l 194 926 l 299 926 l 299 793 l 299 661 l 299 529 l 299 396 l 299 264 l 299 132 l 299 0 m 548 498 l 625 399 l 701 299 l 777 199 l 853 99 l 929 0 l 797 0 l 666 0 l 595 98 l 523 196 l 453 295 l 381 393 l 310 491 l 386 599 l 463 708 l 540 817 l 617 926 l 744 926 l 871 926 l 790 818 l 709 711 l 629 605 l 548 498 "},"d":{"x_min":39.546875,"x_max":691.609375,"ha":778,"o":"m 691 926 l 691 793 l 691 661 l 691 529 l 691 396 l 691 264 l 691 132 l 691 0 l 517 0 l 517 33 l 358 -11 l 228 14 l 128 84 l 62 193 l 39 331 l 63 468 l 132 577 l 235 648 l 366 674 l 517 630 l 517 778 l 517 926 l 691 926 m 389 147 l 517 194 l 517 330 l 517 467 l 389 515 l 264 462 l 214 331 l 264 200 l 389 147 "},"Y":{"x_min":14.46875,"x_max":922.140625,"ha":937,"o":"m 572 440 l 572 294 l 572 146 l 572 0 l 467 0 l 363 0 l 363 146 l 363 294 l 363 440 l 294 538 l 223 634 l 154 732 l 83 828 l 14 926 l 144 926 l 274 926 l 340 826 l 407 727 l 472 627 l 538 727 l 603 826 l 669 926 l 795 926 l 922 926 l 851 828 l 782 732 l 711 634 l 642 538 l 572 440 "},"E":{"x_min":90.671875,"x_max":711.859375,"ha":771,"o":"m 711 752 l 573 752 l 436 752 l 299 752 l 299 652 l 299 552 l 417 552 l 535 552 l 653 552 l 653 385 l 535 385 l 417 385 l 299 385 l 299 279 l 299 173 l 436 173 l 573 173 l 711 173 l 711 0 l 587 0 l 463 0 l 339 0 l 215 0 l 90 0 l 90 132 l 90 264 l 90 396 l 90 529 l 90 661 l 90 793 l 90 926 l 215 926 l 339 926 l 463 926 l 587 926 l 711 926 l 711 752 "},"j":{"x_min":-44.375,"x_max":294.203125,"ha":373,"o":"m 187 917 l 294 810 l 187 703 l 79 810 l 187 917 m 273 578 l 273 450 l 273 323 l 273 194 l 273 67 l 273 -60 l 253 -188 l 191 -281 l 92 -339 l -44 -358 l -44 -194 l 56 -157 l 99 -47 l 99 78 l 99 203 l 99 327 l 99 453 l 99 578 l 273 578 "},"y":{"x_min":21.21875,"x_max":683.890625,"ha":705,"o":"m 441 0 l 395 -132 l 350 -263 l 170 -263 l 217 -132 l 263 0 l 222 109 l 182 220 l 141 330 l 102 441 l 61 551 l 21 662 l 207 662 l 243 554 l 279 446 l 315 338 l 352 230 l 388 338 l 424 446 l 461 554 l 497 662 l 683 662 l 643 551 l 602 441 l 562 330 l 522 220 l 482 109 l 441 0 "},"Z":{"x_min":46.296875,"x_max":806.390625,"ha":853,"o":"m 806 752 l 724 655 l 642 559 l 560 463 l 478 366 l 396 270 l 314 173 l 436 173 l 560 173 l 682 173 l 806 173 l 806 0 l 680 0 l 552 0 l 426 0 l 299 0 l 172 0 l 46 0 l 46 173 l 128 270 l 210 366 l 292 463 l 374 559 l 456 655 l 538 752 l 414 752 l 292 752 l 168 752 l 46 752 l 46 926 l 172 926 l 299 926 l 426 926 l 552 926 l 680 926 l 806 926 l 806 752 "},"u":{"x_min":82.953125,"x_max":699.328125,"ha":795,"o":"m 699 662 l 699 530 l 699 397 l 699 265 l 699 132 l 699 0 l 524 0 l 524 33 l 366 -11 l 243 10 l 154 71 l 101 165 l 82 286 l 82 411 l 82 537 l 82 662 l 257 662 l 257 543 l 257 422 l 257 302 l 297 198 l 401 155 l 524 199 l 524 315 l 524 431 l 524 546 l 524 662 l 699 662 "},"k":{"x_min":100.3125,"x_max":773.59375,"ha":789,"o":"m 366 256 l 274 163 l 274 0 l 100 0 l 100 132 l 100 264 l 100 396 l 100 529 l 100 661 l 100 793 l 100 926 l 274 926 l 274 790 l 274 654 l 274 519 l 274 384 l 281 384 l 370 477 l 458 570 l 546 662 l 653 662 l 761 662 l 670 570 l 580 476 l 490 383 l 560 287 l 631 191 l 702 95 l 773 0 l 664 0 l 556 0 l 492 85 l 430 170 l 366 256 m 275 378 l 274 380 l 274 377 l 275 378 "},"g":{"x_min":39.546875,"x_max":691.609375,"ha":778,"o":"m 691 662 l 691 538 l 691 413 l 691 288 l 691 163 l 691 39 l 667 -88 l 599 -185 l 497 -245 l 371 -267 l 253 -249 l 159 -203 l 159 -50 l 245 -103 l 350 -121 l 466 -76 l 517 39 l 517 76 l 358 30 l 228 53 l 128 116 l 62 218 l 39 352 l 63 487 l 132 588 l 235 652 l 366 674 l 517 630 l 517 662 l 691 662 m 389 176 l 517 219 l 517 352 l 517 485 l 389 528 l 264 479 l 214 352 l 264 225 l 389 176 "},"t":{"x_min":44.375,"x_max":408.984375,"ha":448,"o":"m 265 435 l 265 299 l 307 190 l 408 152 l 408 -11 l 272 7 l 172 65 l 110 159 l 90 286 l 90 435 l 44 435 l 44 580 l 90 580 l 90 679 l 90 778 l 265 778 l 265 679 l 265 580 l 408 580 l 408 435 l 265 435 "},"e":{"x_min":39.546875,"x_max":739.828125,"ha":778,"o":"m 739 289 l 610 289 l 480 289 l 351 289 l 221 289 l 292 180 l 417 140 l 532 163 l 628 225 l 628 65 l 523 6 l 396 -11 l 251 14 l 138 84 l 65 193 l 39 331 l 66 468 l 140 577 l 251 648 l 389 674 l 501 657 l 598 609 l 673 530 l 722 423 l 739 289 m 218 407 l 328 407 l 437 407 l 547 407 l 485 513 l 389 549 l 279 511 l 218 407 "},"J":{"x_min":-2.890625,"x_max":572,"ha":663,"o":"m 572 926 l 572 807 l 572 688 l 572 569 l 572 450 l 572 331 l 549 190 l 486 81 l 384 12 l 249 -11 l 110 9 l -2 70 l -2 183 l -2 297 l 99 221 l 200 194 l 314 231 l 363 353 l 363 467 l 363 582 l 363 696 l 363 811 l 363 926 l 467 926 l 572 926 "},"W":{"x_min":11.578125,"x_max":1377.421875,"ha":1389,"o":"m 1088 0 l 983 0 l 879 0 l 843 126 l 805 252 l 768 379 l 731 505 l 694 631 l 657 505 l 620 379 l 583 252 l 545 126 l 509 0 l 405 0 l 300 0 l 264 115 l 228 231 l 191 347 l 156 463 l 119 578 l 83 694 l 47 810 l 11 926 l 115 926 l 219 926 l 256 799 l 294 673 l 330 546 l 368 420 l 405 294 l 441 420 l 479 546 l 516 673 l 553 799 l 590 926 l 694 926 l 798 926 l 835 799 l 872 673 l 909 546 l 947 420 l 983 294 l 1020 420 l 1058 546 l 1094 673 l 1132 799 l 1169 926 l 1273 926 l 1377 926 l 1340 810 l 1305 694 l 1268 578 l 1232 463 l 1196 347 l 1160 231 l 1123 115 l 1088 0 "},"v":{"x_min":21.21875,"x_max":683.890625,"ha":705,"o":"m 441 0 l 263 0 l 222 109 l 182 220 l 141 330 l 102 441 l 61 551 l 21 662 l 207 662 l 243 554 l 279 446 l 315 338 l 352 230 l 388 338 l 424 446 l 461 554 l 497 662 l 683 662 l 643 551 l 602 441 l 562 330 l 522 220 l 482 109 l 441 0 "},"s":{"x_min":63.65625,"x_max":604.796875,"ha":663,"o":"m 339 672 l 451 660 l 570 614 l 570 448 l 441 507 l 342 524 l 251 473 l 354 407 l 466 371 l 564 309 l 604 200 l 569 83 l 471 12 l 322 -11 l 197 4 l 63 59 l 64 231 l 197 164 l 329 140 l 430 202 l 312 277 l 194 317 l 109 380 l 77 475 l 109 585 l 198 651 l 339 672 "},"B":{"x_min":90.671875,"x_max":820.859375,"ha":863,"o":"m 90 926 l 211 926 l 330 926 l 451 926 l 615 894 l 723 807 l 762 680 l 733 572 l 654 492 l 774 403 l 820 265 l 796 159 l 729 74 l 625 19 l 490 0 l 357 0 l 223 0 l 90 0 l 90 132 l 90 264 l 90 396 l 90 529 l 90 661 l 90 793 l 90 926 m 299 766 l 299 661 l 299 557 l 443 557 l 554 661 l 443 766 l 299 766 m 299 405 l 299 281 l 299 159 l 483 159 l 575 195 l 612 282 l 575 369 l 483 405 l 299 405 "},"H":{"x_min":90.671875,"x_max":934.6875,"ha":1026,"o":"m 934 0 l 826 0 l 718 0 l 718 124 l 718 247 l 718 372 l 581 372 l 444 372 l 307 372 l 307 247 l 307 124 l 307 0 l 198 0 l 90 0 l 90 132 l 90 264 l 90 396 l 90 529 l 90 661 l 90 793 l 90 926 l 198 926 l 307 926 l 307 806 l 307 686 l 307 567 l 444 567 l 581 567 l 718 567 l 718 686 l 718 806 l 718 926 l 826 926 l 934 926 l 934 793 l 934 661 l 934 529 l 934 396 l 934 264 l 934 132 l 934 0 "},"c":{"x_min":42.4375,"x_max":590.328125,"ha":637,"o":"m 378 674 l 495 655 l 590 597 l 590 422 l 504 486 l 399 508 l 272 459 l 217 331 l 272 204 l 399 155 l 504 177 l 590 240 l 590 65 l 495 6 l 378 -11 l 245 14 l 138 84 l 68 193 l 42 331 l 68 468 l 138 577 l 245 648 l 378 674 "},"q":{"x_min":39.546875,"x_max":691.609375,"ha":778,"o":"m 691 662 l 691 530 l 691 398 l 691 266 l 691 133 l 691 0 l 691 -131 l 691 -263 l 517 -263 l 517 -115 l 517 31 l 366 -11 l 235 14 l 132 84 l 63 193 l 39 331 l 62 468 l 128 577 l 228 648 l 358 674 l 517 628 l 517 662 l 691 662 m 389 147 l 517 194 l 517 330 l 517 467 l 389 515 l 264 462 l 214 331 l 264 200 l 389 147 "},"b":{"x_min":87.78125,"x_max":739.828125,"ha":778,"o":"m 411 674 l 543 648 l 647 577 l 715 468 l 739 331 l 716 193 l 651 84 l 550 14 l 420 -11 l 262 33 l 262 0 l 87 0 l 87 132 l 87 264 l 87 396 l 87 529 l 87 661 l 87 793 l 87 926 l 262 926 l 262 778 l 262 631 l 411 674 m 389 147 l 514 200 l 564 331 l 514 462 l 389 515 l 262 468 l 262 331 l 262 194 l 389 147 "},"D":{"x_min":90.671875,"x_max":967.484375,"ha":993,"o":"m 90 926 l 218 926 l 346 926 l 474 926 l 605 910 l 723 866 l 822 795 l 899 702 l 950 590 l 967 463 l 950 335 l 899 223 l 822 130 l 723 59 l 605 15 l 474 0 l 346 0 l 218 0 l 90 0 l 90 132 l 90 264 l 90 396 l 90 529 l 90 661 l 90 793 l 90 926 m 299 737 l 299 599 l 299 463 l 299 325 l 299 188 l 474 188 l 609 222 l 705 319 l 741 463 l 705 606 l 609 703 l 474 737 l 299 737 "},"I":{"x_min":103.203125,"x_max":311.5625,"ha":416,"o":"m 311 0 l 207 0 l 103 0 l 103 132 l 103 264 l 103 396 l 103 529 l 103 661 l 103 793 l 103 926 l 207 926 l 311 926 l 311 793 l 311 661 l 311 529 l 311 396 l 311 264 l 311 132 l 311 0 "},"G":{"x_min":25.078125,"x_max":879.703125,"ha":941,"o":"m 542 937 l 651 927 l 770 897 l 879 840 l 879 733 l 879 626 l 783 688 l 671 728 l 554 742 l 430 722 l 334 665 l 272 576 l 250 462 l 272 344 l 334 251 l 428 190 l 547 168 l 705 217 l 705 365 l 520 365 l 520 518 l 640 518 l 760 518 l 879 518 l 879 380 l 879 241 l 879 102 l 769 39 l 649 0 l 526 -11 l 391 4 l 271 51 l 169 124 l 92 219 l 42 333 l 25 463 l 41 586 l 87 699 l 163 795 l 265 871 l 391 920 l 542 937 "},"z":{"x_min":54.984375,"x_max":608.65625,"ha":663,"o":"m 608 503 l 526 417 l 443 330 l 361 245 l 279 159 l 389 159 l 498 159 l 608 159 l 608 0 l 469 0 l 331 0 l 192 0 l 54 0 l 54 159 l 136 245 l 219 330 l 301 417 l 384 503 l 274 503 l 164 503 l 54 503 l 54 662 l 192 662 l 331 662 l 469 662 l 608 662 l 608 503 "},"U":{"x_min":79.09375,"x_max":889.34375,"ha":968,"o":"m 889 926 l 889 791 l 889 657 l 889 523 l 889 389 l 868 254 l 810 143 l 722 59 l 611 6 l 484 -11 l 355 6 l 245 59 l 157 142 l 99 254 l 79 389 l 79 523 l 79 657 l 79 791 l 79 926 l 187 926 l 296 926 l 296 791 l 296 657 l 296 523 l 296 389 l 350 235 l 484 179 l 618 235 l 672 389 l 672 523 l 672 657 l 672 791 l 672 926 l 780 926 l 889 926 "},"w":{"x_min":21.21875,"x_max":1030.171875,"ha":1051,"o":"m 819 0 l 668 0 l 632 109 l 597 218 l 561 327 l 525 435 l 490 327 l 454 218 l 418 109 l 382 0 l 232 0 l 190 132 l 147 265 l 106 397 l 63 530 l 21 662 l 203 662 l 243 528 l 281 394 l 321 260 l 365 394 l 410 528 l 455 662 l 596 662 l 641 528 l 685 394 l 731 260 l 769 394 l 809 528 l 847 662 l 1030 662 l 987 530 l 946 397 l 903 265 l 862 132 l 819 0 "},"F":{"x_min":90.671875,"x_max":711.859375,"ha":721,"o":"m 711 752 l 573 752 l 436 752 l 299 752 l 299 645 l 299 538 l 417 538 l 535 538 l 653 538 l 653 371 l 535 371 l 417 371 l 299 371 l 299 247 l 299 123 l 299 0 l 194 0 l 90 0 l 90 132 l 90 264 l 90 396 l 90 529 l 90 661 l 90 793 l 90 926 l 215 926 l 339 926 l 463 926 l 587 926 l 711 926 l 711 752 "},"r":{"x_min":90.671875,"x_max":578.75,"ha":579,"o":"m 417 674 l 578 611 l 578 430 l 496 482 l 393 500 l 265 457 l 265 342 l 265 228 l 265 113 l 265 0 l 90 0 l 90 132 l 90 265 l 90 397 l 90 530 l 90 662 l 265 662 l 265 626 l 417 674 "},"x":{"x_min":21.21875,"x_max":726.328125,"ha":748,"o":"m 373 216 l 309 108 l 246 0 l 134 0 l 21 0 l 101 112 l 180 225 l 260 338 l 184 446 l 107 554 l 30 662 l 143 662 l 256 662 l 314 561 l 373 460 l 431 561 l 490 662 l 602 662 l 716 662 l 640 554 l 563 446 l 487 338 l 567 225 l 646 112 l 726 0 l 612 0 l 499 0 l 435 108 l 373 216 "},"V":{"x_min":33.765625,"x_max":976.15625,"ha":1010,"o":"m 617 0 l 504 0 l 392 0 l 347 115 l 302 231 l 257 347 l 213 463 l 167 578 l 123 694 l 78 810 l 33 926 l 148 926 l 263 926 l 303 816 l 344 707 l 383 597 l 424 487 l 464 378 l 505 268 l 545 378 l 586 487 l 626 597 l 666 707 l 707 816 l 747 926 l 861 926 l 976 926 l 930 810 l 886 694 l 841 578 l 796 463 l 751 347 l 707 231 l 661 115 l 617 0 "},"Q":{"x_min":25.078125,"x_max":1016.671875,"ha":1042,"o":"m 1016 463 l 1002 343 l 959 237 l 893 145 l 1016 0 l 909 0 l 803 0 l 763 47 l 648 3 l 520 -11 l 388 4 l 271 51 l 169 124 l 92 219 l 42 333 l 25 463 l 42 592 l 92 706 l 169 801 l 271 874 l 388 921 l 520 937 l 653 921 l 770 874 l 871 801 l 949 706 l 999 592 l 1016 463 m 520 183 l 628 205 l 509 347 l 615 347 l 722 347 l 751 313 l 790 463 l 754 607 l 656 706 l 520 742 l 384 706 l 287 607 l 250 463 l 287 318 l 384 219 l 520 183 "},"h":{"x_min":90.671875,"x_max":707.046875,"ha":778,"o":"m 423 674 l 546 652 l 635 591 l 688 497 l 707 377 l 707 251 l 707 125 l 707 0 l 532 0 l 532 119 l 532 240 l 532 359 l 491 464 l 388 508 l 265 463 l 265 348 l 265 231 l 265 115 l 265 0 l 90 0 l 90 132 l 90 264 l 90 396 l 90 529 l 90 661 l 90 793 l 90 926 l 265 926 l 265 777 l 265 629 l 423 674 "},"M":{"x_min":91.640625,"x_max":1106.375,"ha":1198,"o":"m 1106 0 l 1002 0 l 898 0 l 898 125 l 898 249 l 898 375 l 898 499 l 898 625 l 816 504 l 733 383 l 651 263 l 542 263 l 458 383 l 375 503 l 291 624 l 291 499 l 291 374 l 291 249 l 291 124 l 291 0 l 190 0 l 91 0 l 91 132 l 91 264 l 91 396 l 91 529 l 91 661 l 91 793 l 91 926 l 208 926 l 325 926 l 393 828 l 462 730 l 531 632 l 599 535 l 667 632 l 734 730 l 801 828 l 869 926 l 987 926 l 1106 926 l 1106 793 l 1106 661 l 1106 529 l 1106 396 l 1106 264 l 1106 132 l 1106 0 "},"C":{"x_min":25.078125,"x_max":837.265625,"ha":884,"o":"m 504 937 l 638 925 l 746 890 l 837 839 l 837 725 l 837 612 l 745 683 l 644 728 l 533 742 l 390 707 l 289 609 l 250 463 l 289 316 l 390 218 l 533 183 l 644 197 l 745 242 l 837 312 l 837 199 l 837 86 l 746 32 l 638 0 l 504 -11 l 377 4 l 262 51 l 164 124 l 90 219 l 42 333 l 25 463 l 42 592 l 90 706 l 164 801 l 262 874 l 377 921 l 504 937 "},"f":{"x_min":44.375,"x_max":408.984375,"ha":448,"o":"m 408 937 l 408 773 l 307 735 l 265 626 l 265 580 l 408 580 l 408 435 l 265 435 l 265 290 l 265 144 l 265 0 l 90 0 l 90 144 l 90 290 l 90 435 l 44 435 l 44 580 l 90 580 l 90 639 l 110 766 l 172 860 l 272 918 l 408 937 "},"L":{"x_min":99.359375,"x_max":719.578125,"ha":737,"o":"m 307 194 l 444 194 l 582 194 l 719 194 l 719 97 l 719 0 l 595 0 l 471 0 l 347 0 l 223 0 l 99 0 l 99 132 l 99 264 l 99 396 l 99 529 l 99 661 l 99 793 l 99 926 l 203 926 l 307 926 l 307 804 l 307 681 l 307 560 l 307 438 l 307 316 l 307 194 "},"i":{"x_min":79.09375,"x_max":294.203125,"ha":373,"o":"m 187 917 l 294 810 l 187 703 l 79 810 l 187 917 m 273 0 l 99 0 l 99 115 l 99 231 l 99 347 l 99 463 l 99 578 l 273 578 l 273 463 l 273 347 l 273 231 l 273 115 l 273 0 "},"A":{"x_min":33.765625,"x_max":976.15625,"ha":1010,"o":"m 324 220 l 282 109 l 242 0 l 137 0 l 33 0 l 78 115 l 123 231 l 167 347 l 213 463 l 257 578 l 302 694 l 347 810 l 392 926 l 504 926 l 617 926 l 661 810 l 707 694 l 751 578 l 796 463 l 841 347 l 886 231 l 930 115 l 976 0 l 871 0 l 767 0 l 727 109 l 686 220 l 566 220 l 444 220 l 324 220 m 505 745 l 464 628 l 425 511 l 384 394 l 504 394 l 625 394 l 585 511 l 544 628 l 505 745 "},"n":{"x_min":90.671875,"x_max":707.046875,"ha":778,"o":"m 423 674 l 546 652 l 635 591 l 688 497 l 707 377 l 707 251 l 707 125 l 707 0 l 532 0 l 532 119 l 532 240 l 532 359 l 491 464 l 388 508 l 265 463 l 265 348 l 265 231 l 265 115 l 265 0 l 90 0 l 90 132 l 90 265 l 90 397 l 90 530 l 90 662 l 265 662 l 265 629 l 423 674 "},"O":{"x_min":25.078125,"x_max":1016.671875,"ha":1042,"o":"m 520 937 l 653 921 l 770 874 l 871 801 l 949 706 l 999 592 l 1016 463 l 999 333 l 949 219 l 871 124 l 770 51 l 653 4 l 520 -11 l 388 4 l 271 51 l 169 124 l 92 219 l 42 333 l 25 463 l 42 592 l 92 706 l 169 801 l 271 874 l 388 921 l 520 937 m 520 742 l 384 706 l 287 607 l 250 463 l 287 318 l 384 219 l 520 183 l 656 219 l 754 318 l 790 463 l 754 607 l 656 706 l 520 742 "}," ":{"x_min":0,"x_max":0,"ha":368},"X":{"x_min":14.46875,"x_max":963.625,"ha":979,"o":"m 617 486 l 686 388 l 756 291 l 824 194 l 894 97 l 963 0 l 833 0 l 703 0 l 630 110 l 558 221 l 486 332 l 412 221 l 340 110 l 267 0 l 140 0 l 14 0 l 83 96 l 153 191 l 221 288 l 291 383 l 360 480 l 281 591 l 201 703 l 122 814 l 43 926 l 173 926 l 303 926 l 366 828 l 430 731 l 492 633 l 556 731 l 619 828 l 682 926 l 808 926 l 934 926 l 855 816 l 775 706 l 696 596 l 617 486 "},"P":{"x_min":90.671875,"x_max":788.0625,"ha":821,"o":"m 90 926 l 214 926 l 337 926 l 461 926 l 588 900 l 692 834 l 762 734 l 788 612 l 762 490 l 692 390 l 588 323 l 461 299 l 299 299 l 299 149 l 299 0 l 194 0 l 90 0 l 90 132 l 90 264 l 90 396 l 90 529 l 90 661 l 90 793 l 90 926 m 299 752 l 299 612 l 299 472 l 435 472 l 534 513 l 575 612 l 534 710 l 435 752 l 299 752 "},"m":{"x_min":90.671875,"x_max":1170.046875,"ha":1241,"o":"m 886 674 l 1009 652 l 1098 591 l 1151 497 l 1170 377 l 1170 251 l 1170 125 l 1170 0 l 995 0 l 995 119 l 995 240 l 995 359 l 954 464 l 851 508 l 711 450 l 717 377 l 717 251 l 717 125 l 717 0 l 543 0 l 543 119 l 543 240 l 543 359 l 502 464 l 398 508 l 265 455 l 265 341 l 265 227 l 265 113 l 265 0 l 90 0 l 90 132 l 90 265 l 90 397 l 90 530 l 90 662 l 265 662 l 265 623 l 434 674 l 563 650 l 653 582 l 759 650 l 886 674 "},"l":{"x_min":95.5,"x_max":413.8125,"ha":448,"o":"m 270 926 l 270 800 l 270 675 l 270 550 l 270 425 l 270 299 l 312 190 l 413 152 l 413 -11 l 276 7 l 177 65 l 115 159 l 95 286 l 95 414 l 95 542 l 95 670 l 95 797 l 95 926 l 270 926 "},"p":{"x_min":87.78125,"x_max":739.828125,"ha":778,"o":"m 411 674 l 543 648 l 647 577 l 715 468 l 739 331 l 716 193 l 651 84 l 550 14 l 420 -11 l 262 33 l 262 -114 l 262 -263 l 87 -263 l 87 -131 l 87 0 l 87 133 l 87 266 l 87 398 l 87 530 l 87 662 l 262 662 l 262 631 l 411 674 m 389 147 l 514 200 l 564 331 l 514 462 l 389 515 l 262 468 l 262 331 l 262 194 l 389 147 "},"R":{"x_min":95.5,"x_max":848.828125,"ha":879,"o":"m 95 926 l 218 926 l 342 926 l 465 926 l 593 900 l 696 834 l 765 734 l 791 612 l 771 504 l 714 414 l 630 351 l 703 234 l 776 116 l 848 0 l 729 0 l 610 0 l 548 99 l 487 199 l 425 299 l 303 299 l 303 149 l 303 0 l 199 0 l 95 0 l 95 132 l 95 264 l 95 396 l 95 529 l 95 661 l 95 793 l 95 926 m 303 752 l 303 612 l 303 472 l 440 472 l 539 513 l 580 612 l 539 710 l 440 752 l 303 752 "},"o":{"x_min":39.546875,"x_max":739.828125,"ha":778,"o":"m 389 674 l 527 648 l 638 577 l 712 468 l 739 331 l 712 193 l 638 84 l 527 14 l 389 -11 l 251 14 l 140 84 l 66 193 l 39 331 l 66 468 l 140 577 l 251 648 l 389 674 m 389 515 l 265 462 l 214 331 l 265 200 l 389 147 l 513 200 l 564 331 l 513 462 l 389 515 "}}}
